<?xml version="1.0" encoding="UTF-8"?>
<svg xmlns="http://www.w3.org/2000/svg" xmlns:xlink="http://www.w3.org/1999/xlink" width="52pt" height="52pt" viewBox="0 0 52 52" version="1.1">
<g id="surface19010011">
<path style="fill-rule:nonzero;fill:rgb(99.607843%,99.607843%,99.607843%);fill-opacity:1;stroke-width:1;stroke-linecap:butt;stroke-linejoin:round;stroke:rgb(80%,80%,80%);stroke-opacity:1;stroke-miterlimit:10;" d="M 143.779066 129.935488 L 129.909491 143.779066 C 127.374751 146.339803 123.241175 146.339803 120.680438 143.779066 L 86 109.124625 L 51.345559 143.779066 C 48.784822 146.339803 44.625249 146.339803 42.090509 143.779066 L 28.220934 129.935488 C 25.660197 127.374751 25.660197 123.241175 28.220934 120.680438 L 62.875375 86 L 28.220934 51.345559 C 25.686194 48.758825 25.686194 44.599252 28.220934 42.090509 L 42.090509 28.220934 C 44.625249 25.660197 48.784822 25.660197 51.345559 28.220934 L 86 62.901372 L 120.680438 28.220934 C 123.241175 25.660197 127.400748 25.660197 129.909491 28.220934 L 143.779066 42.064512 C 146.339803 44.625249 146.339803 48.784822 143.805064 51.345559 L 109.124625 86 L 143.779066 120.680438 C 146.339803 123.241175 146.339803 127.374751 143.779066 129.935488 Z M 143.779066 129.935488 " transform="matrix(0.300512,0,0,0.300512,0.156,0.156)"/>
<path style=" stroke:none;fill-rule:nonzero;fill:rgb(99.607843%,99.607843%,99.607843%);fill-opacity:1;" d="M 43.363281 39.203125 L 39.195312 43.363281 C 38.433594 44.132812 37.191406 44.132812 36.421875 43.363281 L 26 32.949219 L 15.585938 43.363281 C 14.816406 44.132812 13.566406 44.132812 12.804688 43.363281 L 8.636719 39.203125 C 7.867188 38.433594 7.867188 37.191406 8.636719 36.421875 L 19.050781 26 L 8.636719 15.585938 C 7.875 14.808594 7.875 13.558594 8.636719 12.804688 L 12.804688 8.636719 C 13.566406 7.867188 14.816406 7.867188 15.585938 8.636719 L 26 19.058594 L 36.421875 8.636719 C 37.191406 7.867188 38.441406 7.867188 39.195312 8.636719 L 43.363281 12.796875 C 44.132812 13.566406 44.132812 14.816406 43.371094 15.585938 L 32.949219 26 L 43.363281 36.421875 C 44.132812 37.191406 44.132812 38.433594 43.363281 39.203125 Z M 43.363281 39.203125 "/>
</g>
</svg>
