<?xml version="1.0" encoding="UTF-8"?>
<svg xmlns="http://www.w3.org/2000/svg" xmlns:xlink="http://www.w3.org/1999/xlink" width="48pt" height="48pt" viewBox="0 0 48 48" version="1.1">
<g id="surface19820404">
<path style="fill-rule:nonzero;fill:rgb(99.607843%,99.607843%,99.607843%);fill-opacity:1;stroke-width:1;stroke-linecap:butt;stroke-linejoin:round;stroke:rgb(80%,80%,80%);stroke-opacity:1;stroke-miterlimit:10;" d="M 157.662724 86.718176 C 157.662724 118.247522 136.877858 145.481891 107.503042 154.804101 L 107.503042 131.14653 C 107.503042 124.697026 104.630337 118.247522 100.335361 114.670722 C 116.811169 111.079841 129.006083 101.771714 129.006083 86 C 129.006083 77.395967 125.415202 70.228286 120.40205 64.496958 C 121.120227 63.060606 121.838403 60.201983 121.838403 54.470655 C 121.838403 51.59795 121.838403 47.302974 120.40205 42.993917 C 120.40205 42.993917 109.643489 42.993917 100.335361 52.316126 C 96.026304 50.879773 91.013152 50.161597 86 50.161597 C 80.986848 50.161597 75.973696 50.879773 72.382815 52.316126 C 62.356511 42.993917 52.316126 42.993917 52.316126 42.993917 C 50.161597 47.302974 50.161597 51.59795 50.161597 54.470655 C 50.161597 59.483806 50.879773 63.060606 51.59795 64.496958 C 46.584798 70.228286 42.993917 78.114143 42.993917 86 C 42.993917 101.771714 55.188831 111.079841 71.664639 114.670722 C 67.369663 117.529345 65.215135 122.556579 64.496958 127.569731 C 63.060606 128.287907 60.920159 129.006083 58.047454 129.006083 C 55.907007 129.006083 51.59795 127.569731 48.02115 121.838403 C 46.584798 119.683874 42.993917 114.670722 38.698941 114.670722 C 37.980765 114.670722 35.840318 114.670722 35.840318 116.092993 C 35.840318 116.811169 36.544412 116.811169 38.698941 117.529345 C 40.85347 119.683874 42.289822 121.838403 42.993917 124.697026 C 43.712093 129.710178 48.02115 138.314211 58.047454 138.314211 C 61.638335 138.314211 64.496958 137.596035 64.496958 137.596035 L 64.496958 154.085924 C 32.967613 144.045539 10.746395 113.23437 15.055453 77.395967 C 18.632252 45.148445 45.148445 18.632252 78.114143 15.055453 C 121.120227 10.028219 157.662724 43.712093 157.662724 86.718176 Z M 157.662724 86.718176 " transform="matrix(0.277395,0,0,0.277395,0.144,0.144)"/>
<path style=" stroke:none;fill-rule:nonzero;fill:rgb(99.607843%,99.607843%,99.607843%);fill-opacity:1;" d="M 21.8125 4.320312 C 12.667969 5.3125 5.3125 12.667969 4.320312 21.613281 C 3.125 31.554688 9.289062 40.101562 18.035156 42.886719 L 18.035156 38.3125 C 18.035156 38.3125 17.242188 38.511719 16.246094 38.511719 C 13.464844 38.511719 12.269531 36.125 12.070312 34.734375 C 11.875 33.941406 11.476562 33.34375 10.878906 32.746094 C 10.28125 32.546875 10.085938 32.546875 10.085938 32.347656 C 10.085938 31.953125 10.679688 31.953125 10.878906 31.953125 C 12.070312 31.953125 13.066406 33.34375 13.464844 33.941406 C 14.457031 35.53125 15.652344 35.929688 16.246094 35.929688 C 17.042969 35.929688 17.636719 35.730469 18.035156 35.53125 C 18.234375 34.140625 18.832031 32.746094 20.023438 31.953125 C 15.453125 30.957031 12.070312 28.375 12.070312 24 C 12.070312 21.8125 13.066406 19.625 14.457031 18.035156 C 14.257812 17.636719 14.058594 16.644531 14.058594 15.253906 C 14.058594 14.457031 14.058594 13.265625 14.65625 12.070312 C 14.65625 12.070312 17.441406 12.070312 20.222656 14.65625 C 21.21875 14.257812 22.609375 14.058594 24 14.058594 C 25.390625 14.058594 26.78125 14.257812 27.976562 14.65625 C 30.558594 12.070312 33.542969 12.070312 33.542969 12.070312 C 33.941406 13.265625 33.941406 14.457031 33.941406 15.253906 C 33.941406 16.84375 33.742188 17.636719 33.542969 18.035156 C 34.933594 19.625 35.929688 21.613281 35.929688 24 C 35.929688 28.375 32.546875 30.957031 27.976562 31.953125 C 29.167969 32.945312 29.964844 34.734375 29.964844 36.523438 L 29.964844 43.085938 C 38.113281 40.5 43.878906 32.945312 43.878906 24.199219 C 43.878906 12.269531 33.742188 2.925781 21.8125 4.320312 Z M 21.8125 4.320312 "/>
</g>
</svg>
