<?xml version="1.0" encoding="UTF-8"?>
<svg xmlns="http://www.w3.org/2000/svg" xmlns:xlink="http://www.w3.org/1999/xlink" width="100pt" height="100pt" viewBox="0 0 100 100" version="1.1">
<g id="surface19781361">
<path style="fill-rule:nonzero;fill:rgb(99.607843%,99.607843%,99.607843%);fill-opacity:1;stroke-width:1;stroke-linecap:butt;stroke-linejoin:round;stroke:rgb(80%,80%,80%);stroke-opacity:1;stroke-miterlimit:10;" d="M 153.079351 24.077999 C 161.609595 24.077999 168.558161 31.026566 168.558161 39.55681 L 168.558161 41.023579 L 86 99.761947 L 3.441839 41.023579 L 3.441839 39.55681 C 3.441839 31.026566 10.390405 24.077999 18.920649 24.077999 Z M 86 75.67854 L 150.139053 30.958973 L 21.847428 30.958973 Z M 24.077999 62.944008 L 24.077999 141.041027 L 147.922001 141.041027 L 147.922001 62.944008 L 168.558161 48.256036 L 168.558161 132.44319 C 168.558161 140.973434 161.609595 147.922001 153.079351 147.922001 L 18.920649 147.922001 C 10.390405 147.922001 3.441839 140.973434 3.441839 132.44319 L 3.441839 48.256036 Z M 24.077999 62.944008 " transform="matrix(0.577907,0,0,0.577907,0.3,0.3)"/>
<path style=" stroke:none;fill-rule:nonzero;fill:rgb(99.607843%,99.607843%,99.607843%);fill-opacity:1;" d="M 11.234375 14.214844 C 6.304688 14.214844 2.289062 18.230469 2.289062 23.160156 L 2.289062 24.007812 L 50 57.953125 L 97.710938 24.007812 L 97.710938 23.160156 C 97.710938 18.230469 93.695312 14.214844 88.765625 14.214844 Z M 12.925781 18.191406 L 87.066406 18.191406 L 50 44.035156 Z M 2.289062 28.1875 L 2.289062 76.839844 C 2.289062 81.769531 6.304688 85.785156 11.234375 85.785156 L 88.765625 85.785156 C 93.695312 85.785156 97.710938 81.769531 97.710938 76.839844 L 97.710938 28.1875 L 85.785156 36.675781 L 85.785156 81.808594 L 14.214844 81.808594 L 14.214844 36.675781 Z M 2.289062 28.1875 "/>
</g>
</svg>
