<?xml version="1.0" encoding="UTF-8"?>
<svg xmlns="http://www.w3.org/2000/svg" xmlns:xlink="http://www.w3.org/1999/xlink" width="48pt" height="48pt" viewBox="0 0 48 48" version="1.1">
<g id="surface19781176">
<path style="fill-rule:nonzero;fill:rgb(99.607843%,99.607843%,99.607843%);fill-opacity:1;stroke-width:1;stroke-linecap:butt;stroke-linejoin:round;stroke:rgb(80%,80%,80%);stroke-opacity:1;stroke-miterlimit:10;" d="M 171.998085 15.759547 L 171.998085 156.240453 C 171.998085 164.830404 164.830404 171.998085 156.240453 171.998085 L 15.759547 171.998085 C 7.169596 171.998085 0.00191514 164.830404 0.00191514 156.240453 L 0.00191514 15.759547 C 0.00191514 7.169596 7.169596 0.00191514 15.759547 0.00191514 L 156.240453 0.00191514 C 164.830404 0.00191514 171.998085 7.169596 171.998085 15.759547 Z M 50.161597 64.496958 L 21.504957 64.496958 L 21.504957 143.327363 L 50.161597 143.327363 Z M 50.161597 41.571646 C 50.161597 34.403965 44.430269 28.672637 35.840318 28.672637 C 27.236285 28.672637 21.504957 34.403965 21.504957 42.27574 C 21.504957 49.443421 27.236285 55.174749 35.840318 55.174749 C 44.430269 55.174749 50.161597 49.443421 50.161597 41.571646 Z M 150.495043 100.335361 C 150.495043 75.25552 139.018305 64.496958 125.415202 64.496958 C 111.812099 64.496958 104.644419 69.51011 100.335361 75.973696 L 100.335361 64.496958 L 71.664639 64.496958 L 71.664639 143.327363 L 100.335361 143.327363 C 100.335361 143.327363 100.335361 101.757632 100.335361 100.335361 C 100.335361 87.422271 109.65757 86 111.812099 86 C 113.938464 86 121.838403 88.858623 121.838403 100.335361 L 121.838403 143.327363 L 150.495043 143.327363 Z M 150.495043 100.335361 " transform="matrix(0.277395,0,0,0.277395,0.144,0.144)"/>
<path style=" stroke:none;fill-rule:nonzero;fill:rgb(99.607843%,99.607843%,99.607843%);fill-opacity:1;" d="M 43.484375 0.144531 L 4.515625 0.144531 C 2.132812 0.144531 0.144531 2.132812 0.144531 4.515625 L 0.144531 43.484375 C 0.144531 45.867188 2.132812 47.855469 4.515625 47.855469 L 43.484375 47.855469 C 45.867188 47.855469 47.855469 45.867188 47.855469 43.484375 L 47.855469 4.515625 C 47.855469 2.132812 45.867188 0.144531 43.484375 0.144531 Z M 14.058594 39.902344 L 6.109375 39.902344 L 6.109375 18.035156 L 14.058594 18.035156 Z M 10.085938 15.449219 C 7.699219 15.449219 6.109375 13.859375 6.109375 11.871094 C 6.109375 9.6875 7.699219 8.097656 10.085938 8.097656 C 12.46875 8.097656 14.058594 9.6875 14.058594 11.675781 C 14.058594 13.859375 12.46875 15.449219 10.085938 15.449219 Z M 41.890625 39.902344 L 33.941406 39.902344 L 33.941406 27.976562 C 33.941406 24.792969 31.75 24 31.160156 24 C 30.5625 24 27.976562 24.394531 27.976562 27.976562 C 27.976562 28.371094 27.976562 39.902344 27.976562 39.902344 L 20.023438 39.902344 L 20.023438 18.035156 L 27.976562 18.035156 L 27.976562 21.21875 C 29.171875 19.425781 31.160156 18.035156 34.933594 18.035156 C 38.707031 18.035156 41.890625 21.019531 41.890625 27.976562 Z M 41.890625 39.902344 "/>
</g>
</svg>
